<?xml version="1.0" encoding="utf-8"?>
<!-- Generator: Adobe Illustrator 16.0.3, SVG Export Plug-In . SVG Version: 6.00 Build 0)  -->
<!DOCTYPE svg PUBLIC "-//W3C//DTD SVG 1.1//EN" "http://www.w3.org/Graphics/SVG/1.1/DTD/svg11.dtd">
<svg version="1.1" id="Layer_1" xmlns="http://www.w3.org/2000/svg" xmlns:xlink="http://www.w3.org/1999/xlink" x="0px" y="0px"
	 width="206px" height="388px" viewBox="0 0 206 388" xml:space="preserve">
<g id="Layer_2">
	<path fill-opacity="0" stroke="#FFFFFF" stroke-width="4" d="M308.925,305.706c-103,0-164,17.667-171.667,20.334
		c-6,7-15,44-13.737,71c-1.263,26.442,7.737,62.677,13.737,69.532c7.667,2.611,68.667,19.913,171.667,19.913
		c100.324,0,159.739-17.302,167.207-19.913c5.844-6.855,14.61-43.09,13.38-69.532c1.23-27-7.536-64-13.38-71
		C468.664,323.373,409.249,305.706,308.925,305.706"/>
	<path fill-opacity="0" stroke="#FFFFFF" stroke-width="7" d="M309.067,293.5c-103,0-173.94,20.27-181.607,22.936
		c-6,7-15.989,53.064-14.726,80.064c-1.263,26.788,8.726,72.49,14.726,79.435c7.667,2.646,78.607,22.757,181.607,22.757
		c100.323,0,169.421-20.11,176.888-22.757c5.844-6.944,15.574-52.646,14.344-79.435c1.23-27-8.5-73.064-14.344-80.064
		C478.488,313.77,409.391,293.5,309.067,293.5"/>
	<path fill="#FFFFFF" d="M180.62,382.493c1.978,1.564,2.967,3.6,2.967,6.107c0,2.139-0.759,3.968-2.277,5.486
		c-1.518,1.518-3.347,2.276-5.486,2.276h-14.662v-25.875h12.937c2.139,0,3.968,0.759,5.486,2.277
		c1.518,1.519,2.277,3.347,2.277,5.486C181.862,379.791,181.448,381.205,180.62,382.493z M166.337,380.837h7.762
		c0.713,0,1.323-0.253,1.829-0.759c0.506-0.506,0.759-1.115,0.759-1.828s-0.253-1.322-0.759-1.828
		c-0.506-0.506-1.116-0.759-1.829-0.759h-7.762V380.837z M166.302,391.188h9.522c0.713,0,1.323-0.253,1.829-0.76
		c0.506-0.506,0.759-1.116,0.759-1.828c0-0.713-0.253-1.323-0.759-1.828c-0.506-0.506-1.116-0.759-1.829-0.759h-9.522V391.188z
		 M201.697,396.362v-25.875h18.975v5.176h-13.8v7.762h10.35v5.175h-10.35v2.588h13.8v5.174H201.697z M240.507,396.362v-25.875h1.38
		l15.87,15.112v-15.112h5.175v25.875h-1.415l-15.835-15.111v15.111H240.507z M280.524,392.671l-0.517-0.69l4.105-3.174l0.518,0.69
		c0.874,1.127,2.013,1.691,3.415,1.691c1.196,0,2.214-0.42,3.054-1.26c0.839-0.839,1.259-1.857,1.259-3.053v-16.388h5.175v16.388
		c0,2.622-0.926,4.859-2.778,6.71c-1.851,1.852-4.088,2.777-6.71,2.777c-1.518,0-2.932-0.328-4.243-0.983
		S281.398,393.821,280.524,392.671z M335.101,396.362l-2.381-4.312h-13.316l-2.347,4.312h-5.898l14.904-27.289L341,396.362H335.101z
		 M322.232,386.875h7.658l-3.828-7.038L322.232,386.875z M356.73,396.362l2.001-25.875h1.311l9.349,10.109l9.315-10.109h1.346
		l1.966,25.875h-5.175l-1.138-14.973l-6.314,6.831l-6.312-6.831l-1.173,14.973H356.73z M406.683,370.487v25.875h-5.175v-25.875
		H406.683z M426.863,396.362v-25.875h1.38l15.87,15.112v-15.112h5.175v25.875h-1.414l-15.836-15.111v15.111H426.863z"/>
	<path fill="#FFFFFF" d="M242.3,430.245c0.84,0,1.628-0.186,2.363-0.556c0.734-0.372,1.347-0.887,1.837-1.545l1.659,1.281
		c-0.686,0.896-1.54,1.606-2.562,2.132s-2.121,0.787-3.297,0.787c-2.03,0-3.763-0.717-5.198-2.151
		c-1.435-1.436-2.152-3.168-2.152-5.198s0.717-3.763,2.152-5.197c1.435-1.436,3.168-2.153,5.198-2.153
		c1.176,0,2.275,0.263,3.297,0.788s1.876,1.235,2.562,2.132l-1.659,1.28c-0.49-0.657-1.103-1.172-1.837-1.543
		c-0.735-0.371-1.523-0.557-2.363-0.557c-1.442,0-2.677,0.511-3.706,1.533c-1.029,1.021-1.544,2.261-1.544,3.717
		s0.515,2.695,1.544,3.717C239.623,429.734,240.858,430.245,242.3,430.245z M269.059,417.645h2.1v14.7h-2.1v-4.725h-8.4v4.725h-2.1
		v-14.7h2.1v7.875h8.4V417.645z M295.503,432.345l-1.449-2.625h-8.736l-1.428,2.625h-2.394l8.19-14.994l8.211,14.994H295.503z
		 M286.473,427.62h6.447l-3.234-5.901L286.473,427.62z M315.773,427.62l3.107,4.725h-2.52l-2.751-4.2h-0.126h-3.15v4.2h-2.1v-14.7
		h5.25c1.441,0,2.677,0.512,3.706,1.533c1.029,1.022,1.544,2.262,1.544,3.717c0,1.022-0.27,1.957-0.809,2.805
		C317.387,426.546,316.669,427.186,315.773,427.62z M310.334,419.745v6.3h3.15c0.867,0,1.609-0.308,2.226-0.924
		s0.924-1.358,0.924-2.227c0-0.867-0.308-1.609-0.924-2.226s-1.358-0.924-2.226-0.924H310.334z M332.557,417.645v14.7h-2.1v-14.7
		H332.557z M343.377,417.645h12.6v2.101h-5.25v12.6h-2.1v-12.6h-5.25V417.645z M375.512,417.645h2.479l-5.922,9.43v5.271h-2.101
		v-5.271l-5.9-9.43h2.478l4.473,7.141L375.512,417.645z"/>
</g>
</svg>
